<svg id="visual" viewBox="0 0 960 540" width="960" height="540" xmlns="http://www.w3.org/2000/svg" xmlns:xlink="http://www.w3.org/1999/xlink" version="1.1"><rect x="0" y="0" width="960" height="540" fill="#272121"></rect><defs><linearGradient id="grad1_0" x1="43.8%" y1="100%" x2="100%" y2="0%"><stop offset="14.444444444444446%" stop-color="#ffd600" stop-opacity="1"></stop><stop offset="85.55555555555554%" stop-color="#ffd600" stop-opacity="1"></stop></linearGradient></defs><defs><linearGradient id="grad1_1" x1="43.8%" y1="100%" x2="100%" y2="0%"><stop offset="14.444444444444446%" stop-color="#ffd600" stop-opacity="1"></stop><stop offset="85.55555555555554%" stop-color="#e9a327" stop-opacity="1"></stop></linearGradient></defs><defs><linearGradient id="grad1_2" x1="43.8%" y1="100%" x2="100%" y2="0%"><stop offset="14.444444444444446%" stop-color="#c47736" stop-opacity="1"></stop><stop offset="85.55555555555554%" stop-color="#e9a327" stop-opacity="1"></stop></linearGradient></defs><defs><linearGradient id="grad1_3" x1="43.8%" y1="100%" x2="100%" y2="0%"><stop offset="14.444444444444446%" stop-color="#c47736" stop-opacity="1"></stop><stop offset="85.55555555555554%" stop-color="#955439" stop-opacity="1"></stop></linearGradient></defs><defs><linearGradient id="grad1_4" x1="43.8%" y1="100%" x2="100%" y2="0%"><stop offset="14.444444444444446%" stop-color="#5f3832" stop-opacity="1"></stop><stop offset="85.55555555555554%" stop-color="#955439" stop-opacity="1"></stop></linearGradient></defs><defs><linearGradient id="grad1_5" x1="43.8%" y1="100%" x2="100%" y2="0%"><stop offset="14.444444444444446%" stop-color="#5f3832" stop-opacity="1"></stop><stop offset="85.55555555555554%" stop-color="#272121" stop-opacity="1"></stop></linearGradient></defs><defs><linearGradient id="grad2_0" x1="0%" y1="100%" x2="56.3%" y2="0%"><stop offset="14.444444444444446%" stop-color="#ffd600" stop-opacity="1"></stop><stop offset="85.55555555555554%" stop-color="#ffd600" stop-opacity="1"></stop></linearGradient></defs><defs><linearGradient id="grad2_1" x1="0%" y1="100%" x2="56.3%" y2="0%"><stop offset="14.444444444444446%" stop-color="#e9a327" stop-opacity="1"></stop><stop offset="85.55555555555554%" stop-color="#ffd600" stop-opacity="1"></stop></linearGradient></defs><defs><linearGradient id="grad2_2" x1="0%" y1="100%" x2="56.3%" y2="0%"><stop offset="14.444444444444446%" stop-color="#e9a327" stop-opacity="1"></stop><stop offset="85.55555555555554%" stop-color="#c47736" stop-opacity="1"></stop></linearGradient></defs><defs><linearGradient id="grad2_3" x1="0%" y1="100%" x2="56.3%" y2="0%"><stop offset="14.444444444444446%" stop-color="#955439" stop-opacity="1"></stop><stop offset="85.55555555555554%" stop-color="#c47736" stop-opacity="1"></stop></linearGradient></defs><defs><linearGradient id="grad2_4" x1="0%" y1="100%" x2="56.3%" y2="0%"><stop offset="14.444444444444446%" stop-color="#955439" stop-opacity="1"></stop><stop offset="85.55555555555554%" stop-color="#5f3832" stop-opacity="1"></stop></linearGradient></defs><defs><linearGradient id="grad2_5" x1="0%" y1="100%" x2="56.3%" y2="0%"><stop offset="14.444444444444446%" stop-color="#272121" stop-opacity="1"></stop><stop offset="85.55555555555554%" stop-color="#5f3832" stop-opacity="1"></stop></linearGradient></defs><g transform="translate(960, 540)"><path d="M-469 0C-456.5 -60.7 -443.9 -121.3 -420.4 -174.1C-396.8 -226.9 -362.2 -271.8 -323.1 -323.1C-284.1 -374.5 -240.6 -432.4 -186 -449C-131.4 -465.6 -65.7 -440.8 0 -416L0 0Z" fill="#432c2b"></path><path d="M-390.8 0C-380.4 -50.6 -369.9 -101.1 -350.3 -145.1C-330.7 -189.1 -301.8 -226.5 -269.3 -269.3C-236.7 -312.1 -200.5 -360.4 -155 -374.2C-109.5 -388 -54.7 -367.3 0 -346.7L0 0Z" fill="#7a4536"></path><path d="M-312.7 0C-304.3 -40.4 -296 -80.9 -280.2 -116.1C-264.5 -151.3 -241.5 -181.2 -215.4 -215.4C-189.4 -249.7 -160.4 -288.3 -124 -299.3C-87.6 -310.4 -43.8 -293.9 0 -277.3L0 0Z" fill="#ad6538"></path><path d="M-234.5 0C-228.2 -30.3 -222 -60.7 -210.2 -87.1C-198.4 -113.4 -181.1 -135.9 -161.6 -161.6C-142 -187.3 -120.3 -216.2 -93 -224.5C-65.7 -232.8 -32.8 -220.4 0 -208L0 0Z" fill="#d88c30"></path><path d="M-156.3 0C-152.2 -20.2 -148 -40.4 -140.1 -58C-132.3 -75.6 -120.7 -90.6 -107.7 -107.7C-94.7 -124.8 -80.2 -144.1 -62 -149.7C-43.8 -155.2 -21.9 -146.9 0 -138.7L0 0Z" fill="#f6bc1a"></path><path d="M-78.2 0C-76.1 -10.1 -74 -20.2 -70.1 -29C-66.1 -37.8 -60.4 -45.3 -53.9 -53.9C-47.3 -62.4 -40.1 -72.1 -31 -74.8C-21.9 -77.6 -10.9 -73.5 0 -69.3L0 0Z" fill="#ffd600"></path></g><g transform="translate(0, 0)"><path d="M471 0C458.5 58.3 446.1 116.5 425.9 176.4C405.7 236.3 377.8 297.8 331.6 331.6C285.4 365.4 221 371.5 162.6 392.6C104.3 413.8 52.2 449.9 0 486L0 0Z" fill="#432c2b"></path><path d="M392.5 0C382.1 48.6 371.7 97.1 354.9 147C338.1 196.9 314.9 248.2 276.4 276.4C237.9 304.5 184.1 309.6 135.5 327.2C86.9 344.8 43.5 374.9 0 405L0 0Z" fill="#7a4536"></path><path d="M314 0C305.7 38.8 297.4 77.7 283.9 117.6C270.5 157.5 251.9 198.6 221.1 221.1C190.3 243.6 147.3 247.7 108.4 261.8C69.5 275.8 34.8 299.9 0 324L0 0Z" fill="#ad6538"></path><path d="M235.5 0C229.3 29.1 223 58.3 213 88.2C202.9 118.2 188.9 148.9 165.8 165.8C142.7 182.7 110.5 185.8 81.3 196.3C52.2 206.9 26.1 224.9 0 243L0 0Z" fill="#d88c30"></path><path d="M157 0C152.8 19.4 148.7 38.8 142 58.8C135.2 78.8 125.9 99.3 110.5 110.5C95.1 121.8 73.7 123.8 54.2 130.9C34.8 137.9 17.4 150 0 162L0 0Z" fill="#f6bc1a"></path><path d="M78.5 0C76.4 9.7 74.3 19.4 71 29.4C67.6 39.4 63 49.6 55.3 55.3C47.6 60.9 36.8 61.9 27.1 65.4C17.4 69 8.7 75 0 81L0 0Z" fill="#ffd600"></path></g></svg>