<svg id="visual" viewBox="0 0 9000 4500" width="9000" height="4500" xmlns="http://www.w3.org/2000/svg" xmlns:xlink="http://www.w3.org/1999/xlink" version="1.1"><rect x="0" y="0" width="9000" height="4500" fill="#3b3b3b"></rect><path d="M1097 4500L2504 4500L2504 4125L587 4125L587 3750L2120 3750L2120 3375L1110 3375L1110 3000L3193 3000L3193 2625L1079 2625L1079 2250L2167 2250L2167 1875L1109 1875L1109 1500L2576 1500L2576 1125L2489 1125L2489 750L644 750L644 375L1212 375L1212 0L9000 0L9000 375L9000 375L9000 750L9000 750L9000 1125L9000 1125L9000 1500L9000 1500L9000 1875L9000 1875L9000 2250L9000 2250L9000 2625L9000 2625L9000 3000L9000 3000L9000 3375L9000 3375L9000 3750L9000 3750L9000 4125L9000 4125L9000 4500L9000 4500Z" fill="#1e1e1e"></path><path d="M2350 4500L2528 4500L2528 4125L3608 4125L3608 3750L4207 3750L4207 3375L2173 3375L2173 3000L2511 3000L2511 2625L3935 2625L3935 2250L2797 2250L2797 1875L3974 1875L3974 1500L3227 1500L3227 1125L2310 1125L2310 750L3531 750L3531 375L3558 375L3558 0L9000 0L9000 375L9000 375L9000 750L9000 750L9000 1125L9000 1125L9000 1500L9000 1500L9000 1875L9000 1875L9000 2250L9000 2250L9000 2625L9000 2625L9000 3000L9000 3000L9000 3375L9000 3375L9000 3750L9000 3750L9000 4125L9000 4125L9000 4500L9000 4500Z" fill="#1a1a1a"></path><path d="M4066 4500L4280 4500L4280 4125L5241 4125L5241 3750L4488 3750L4488 3375L4008 3375L4008 3000L5827 3000L5827 2625L5843 2625L5843 2250L4527 2250L4527 1875L4907 1875L4907 1500L4230 1500L4230 1125L5362 1125L5362 750L4529 750L4529 375L4607 375L4607 0L9000 0L9000 375L9000 375L9000 750L9000 750L9000 1125L9000 1125L9000 1500L9000 1500L9000 1875L9000 1875L9000 2250L9000 2250L9000 2625L9000 2625L9000 3000L9000 3000L9000 3375L9000 3375L9000 3750L9000 3750L9000 4125L9000 4125L9000 4500L9000 4500Z" fill="#151515"></path><path d="M7115 4500L6337 4500L6337 4125L5382 4125L5382 3750L7000 3750L7000 3375L6385 3375L6385 3000L4903 3000L4903 2625L6925 2625L6925 2250L6834 2250L6834 1875L5584 1875L5584 1500L5503 1500L5503 1125L7110 1125L7110 750L5059 750L5059 375L4871 375L4871 0L9000 0L9000 375L9000 375L9000 750L9000 750L9000 1125L9000 1125L9000 1500L9000 1500L9000 1875L9000 1875L9000 2250L9000 2250L9000 2625L9000 2625L9000 3000L9000 3000L9000 3375L9000 3375L9000 3750L9000 3750L9000 4125L9000 4125L9000 4500L9000 4500Z" fill="#101010"></path><path d="M7865 4500L7422 4500L7422 4125L6585 4125L6585 3750L7915 3750L7915 3375L7292 3375L7292 3000L8237 3000L8237 2625L7814 2625L7814 2250L7298 2250L7298 1875L7622 1875L7622 1500L8487 1500L8487 1125L8658 1125L8658 750L6389 750L6389 375L6591 375L6591 0L9000 0L9000 375L9000 375L9000 750L9000 750L9000 1125L9000 1125L9000 1500L9000 1500L9000 1875L9000 1875L9000 2250L9000 2250L9000 2625L9000 2625L9000 3000L9000 3000L9000 3375L9000 3375L9000 3750L9000 3750L9000 4125L9000 4125L9000 4500L9000 4500Z" fill="#0a0a0a"></path></svg>